<?xml version="1.0" standalone="no"?>
<!DOCTYPE svg PUBLIC "-//W3C//DTD SVG 20010904//EN"
 "http://www.w3.org/TR/2001/REC-SVG-20010904/DTD/svg10.dtd">
<svg version="1.0" xmlns="http://www.w3.org/2000/svg"
 width="180.000000pt" height="180.000000pt" viewBox="0 0 180.000000 180.000000"
 preserveAspectRatio="xMidYMid meet">

<g transform="translate(0.000000,180.000000) scale(0.100000,-0.100000)"
fill="#000000" stroke="none">
<path d="M741 1710 c-247 -52 -458 -213 -571 -435 -55 -108 -80 -200 -87 -322
-30 -496 371 -900 865 -870 127 8 195 26 319 87 209 103 368 301 429 535 26
101 24 302 -4 408 -60 220 -210 407 -413 516 -124 66 -194 83 -354 87 -77 2
-160 -1 -184 -6z m292 -45 c177 -37 345 -169 426 -335 47 -96 71 -194 71 -290
0 -295 -212 -561 -497 -624 -96 -21 -173 -20 -269 4 -122 31 -198 74 -290 165
-65 64 -90 97 -123 165 -94 193 -94 387 0 580 79 161 242 292 415 334 77 19
182 19 267 1z"/>
<path d="M722 1614 c-294 -100 -445 -392 -353 -685 51 -163 209 -308 384 -355
69 -18 218 -18 291 1 201 53 358 217 401 421 18 87 18 121 0 208 -43 203 -200
369 -401 421 -93 24 -234 20 -322 -11z m273 -28 c151 -40 261 -143 306 -285
25 -81 24 -156 -1 -232 -27 -79 -56 -123 -119 -182 -247 -231 -667 -92 -721
238 -40 243 164 473 420 474 36 1 88 -5 115 -13z"/>
<path d="M787 1546 c-82 -30 -140 -85 -187 -176 -35 -67 -40 -213 -10 -292 28
-75 96 -150 168 -185 47 -23 70 -28 132 -28 65 0 85 5 142 33 74 36 114 78
156 162 24 48 27 67 27 150 0 82 -4 103 -27 152 -34 72 -93 137 -155 168 -59
30 -186 38 -246 16z m202 -39 c153 -101 79 -341 -104 -341 -162 0 -246 201
-132 315 17 18 45 38 62 46 46 21 126 11 174 -20z"/>
</g>
</svg>
