<?xml version="1.0" standalone="no"?>
<!DOCTYPE svg PUBLIC "-//W3C//DTD SVG 20010904//EN"
 "http://www.w3.org/TR/2001/REC-SVG-20010904/DTD/svg10.dtd">
<svg version="1.0" xmlns="http://www.w3.org/2000/svg"
 width="250.000000pt" height="100.000000pt" viewBox="0 0 250.000000 100.000000"
 preserveAspectRatio="xMidYMid meet">

<g transform="translate(0.000000,100.000000) scale(0.100000,-0.100000)"
fill="#000000" stroke="none">
<path d="M0 970 l0 -30 240 0 240 0 0 30 0 30 -240 0 -240 0 0 -30z"/>
<path d="M560 970 l0 -30 338 0 337 0 -30 20 c-53 35 -95 40 -372 40 l-273 0
0 -30z"/>
<path d="M1390 970 l0 -30 204 0 205 0 -10 30 -11 30 -194 0 -194 0 0 -30z"/>
<path d="M2096 978 c-3 -13 -6 -26 -6 -30 0 -5 90 -8 200 -8 l200 0 0 30 0 30
-194 0 c-192 0 -194 0 -200 -22z"/>
<path d="M0 830 l0 -30 240 0 240 0 0 30 0 30 -240 0 -240 0 0 -30z"/>
<path d="M560 830 l0 -30 380 0 c403 0 391 -1 374 44 -5 14 -48 16 -380 16
l-374 0 0 -30z"/>
<path d="M1390 830 l0 -30 229 0 230 0 -10 30 -11 30 -219 0 -219 0 0 -30z"/>
<path d="M2046 838 c-3 -13 -6 -26 -6 -30 0 -5 101 -8 225 -8 l225 0 0 30 0
30 -219 0 c-218 0 -219 0 -225 -22z"/>
<path d="M140 700 l0 -30 105 0 105 0 0 30 0 30 -105 0 -105 0 0 -30z"/>
<path d="M700 700 l0 -30 100 0 100 0 0 30 0 30 -100 0 -100 0 0 -30z"/>
<path d="M1110 700 l0 -30 104 0 c85 0 105 3 110 16 16 42 11 44 -104 44
l-110 0 0 -30z"/>
<path d="M1530 700 l0 -30 180 0 c99 0 180 2 180 4 0 3 -4 16 -10 30 l-10 26
-170 0 -170 0 0 -30z"/>
<path d="M2000 704 c-6 -14 -10 -27 -10 -30 0 -2 83 -4 185 -4 l185 0 0 30 0
30 -175 0 -175 0 -10 -26z"/>
<path d="M140 570 l0 -30 105 0 105 0 0 30 0 30 -105 0 -105 0 0 -30z"/>
<path d="M700 570 l0 -30 268 0 268 0 29 30 29 30 -297 0 -297 0 0 -30z"/>
<path d="M1530 570 l0 -30 100 0 c88 0 100 2 100 18 1 16 1 16 11 0 9 -16 30
-18 204 -18 176 0 194 2 198 18 4 16 5 16 6 0 1 -16 13 -18 106 -18 l105 0 0
30 0 30 -198 0 -198 0 -10 -27 -11 -28 -13 28 -13 27 -194 0 -193 0 0 -30z"/>
<path d="M140 435 l0 -35 105 0 105 0 0 35 0 35 -105 0 -105 0 0 -35z"/>
<path d="M700 435 l0 -35 296 0 c281 0 296 1 283 18 -43 54 -33 52 -316 52
l-263 0 0 -35z"/>
<path d="M1530 435 l0 -35 100 0 100 0 0 35 0 35 -100 0 -100 0 0 -35z"/>
<path d="M1780 460 c0 -5 5 -21 12 -35 l11 -25 142 0 142 0 10 35 11 35 -164
0 c-97 0 -164 -4 -164 -10z"/>
<path d="M2150 435 l0 -35 106 0 105 0 -3 33 -3 32 -102 3 -103 3 0 -36z"/>
<path d="M140 300 l0 -30 105 0 105 0 0 30 0 30 -105 0 -105 0 0 -30z"/>
<path d="M700 300 l0 -30 100 0 100 0 0 30 0 30 -100 0 -100 0 0 -30z"/>
<path d="M1110 300 l0 -30 110 0 c115 0 120 2 104 44 -5 13 -25 16 -110 16
l-104 0 0 -30z"/>
<path d="M1530 300 l0 -30 100 0 100 0 0 30 0 30 -100 0 -100 0 0 -30z"/>
<path d="M1830 319 c0 -6 5 -19 10 -30 9 -17 22 -19 104 -19 l94 0 11 30 10
30 -115 0 c-74 0 -114 -4 -114 -11z"/>
<path d="M2150 300 l0 -30 105 0 105 0 0 30 0 30 -105 0 -105 0 0 -30z"/>
<path d="M0 170 l0 -30 245 0 245 0 0 30 0 30 -245 0 -245 0 0 -30z"/>
<path d="M560 170 l0 -30 374 0 c332 0 375 2 380 16 17 45 29 44 -374 44
l-380 0 0 -30z"/>
<path d="M1390 170 l0 -30 170 0 170 0 0 30 0 30 -170 0 -170 0 0 -30z"/>
<path d="M1883 170 c10 -28 15 -30 59 -30 43 0 50 3 58 26 6 14 10 27 10 30 0
2 -31 4 -69 4 l-69 0 11 -30z"/>
<path d="M2150 170 l0 -30 175 0 175 0 0 30 0 30 -175 0 -175 0 0 -30z"/>
<path d="M7 63 c-4 -3 -7 -19 -7 -35 l0 -28 245 0 245 0 0 35 0 35 -238 0
c-131 0 -242 -3 -245 -7z"/>
<path d="M560 34 l0 -35 288 3 287 3 53 28 c28 15 52 30 52 32 0 3 -153 5
-340 5 l-340 0 0 -36z"/>
<path d="M1390 35 l0 -35 170 0 170 0 0 35 0 35 -170 0 -170 0 0 -35z"/>
<path d="M1920 63 c1 -13 29 -59 30 -48 0 6 3 20 6 33 5 18 2 22 -15 22 -11 0
-21 -3 -21 -7z"/>
<path d="M2150 35 l0 -35 175 0 175 0 0 35 0 35 -175 0 -175 0 0 -35z"/>
</g>
</svg>
