<?xml version="1.0" standalone="no"?>
<!DOCTYPE svg PUBLIC "-//W3C//DTD SVG 20010904//EN"
 "http://www.w3.org/TR/2001/REC-SVG-20010904/DTD/svg10.dtd">
<svg version="1.0" xmlns="http://www.w3.org/2000/svg"
 width="256.000000pt" height="256.000000pt" viewBox="0 0 256.000000 256.000000"
 preserveAspectRatio="xMidYMid meet">

<g transform="translate(0.000000,256.000000) scale(0.100000,-0.100000)"
fill="#000000" stroke="none">
<path d="M120 1280 l0 -1160 580 0 580 0 0 60 0 60 -520 0 -520 0 0 1040 0
1040 1040 0 1040 0 0 -520 0 -520 60 0 60 0 0 580 0 580 -1160 0 -1160 0 0
-1160z"/>
<path d="M1160 955 l0 -75 75 0 75 0 0 -255 0 -255 105 0 105 0 0 255 0 255
80 0 80 0 0 75 0 75 -260 0 -260 0 0 -75z"/>
<path d="M1810 700 l0 -330 105 0 105 0 0 143 c0 78 4 148 8 155 6 8 31 -41
74 -140 l65 -153 121 -3 c67 -1 122 0 122 2 0 3 -40 79 -90 169 -49 90 -90
168 -90 173 0 5 41 77 90 159 l90 150 -117 3 c-64 1 -120 -1 -125 -6 -5 -5
-40 -69 -78 -143 l-69 -134 -1 143 0 142 -105 0 -105 0 0 -330z"/>
</g>
</svg>
