<svg xmlns="http://www.w3.org/2000/svg" fill="none" viewBox="0 0 473 100"><path fill="#BA0020" fill-rule="evenodd" d="M22.487 8.252C30.634 2.866 40.232 0 50.002 0c4.592 0 9.184.622 13.603 1.865C90.188 9.392 105.62 37.014 98.094 63.6c-7.526 26.587-35.145 42.021-61.729 34.494l3.107-8.563 6.077-16.643 4.453-12.326 12.153 33.423 7.871-21.718-20.058-55.141-7.872 21.649 6.042 16.677-4.212 11.74-21.44-58.94zM66.4 38.81l7.871 21.822 7.941-21.753-7.906-21.752-7.906 21.683z" clip-rule="evenodd"></path><path fill="#BA0020" d="M23.868 22.098l-6.076 16.746 18.228 50.1-2.934 8.114A50.11 50.11 0 0110.334 80.45c-16.813-21.925-12.67-53.311 9.218-70.126l4.316 11.774z"></path><path fill="#BA0020" d="M25.732 27.173l-4.246 11.67L37.85 83.869l4.28-11.601-16.398-45.094zM50.002 27.242l16.4 45.025-4.247 11.601L45.79 38.81l4.212-11.566z"></path><g><path fill="#101820" d="M155.986 61.206c-.96-2.484-1.92-4.97-2.826-7.465-1.808-4.988-3.47-9.976-5.097-15.037l-12.905 34.413h-2.675c-.542-1.736-1.12-3.47-1.807-5.097a1219.281 1219.281 0 01-6.507-17.243 972.009 972.009 0 01-4.084-11.549c-1.347-3.858-2.693-7.718-4.085-11.55h8.675c3.213 8.864 6.266 17.773 9.323 26.691l.001.004c.795 2.32 1.59 4.64 2.388 6.96l12.363-34.666h3.325l12.182 34.882 12.616-33.87h3.976l-17.17 45.438h-3.326c-1.31-3.998-2.838-7.954-4.367-11.911zM190.662 62.322c.064-6.746.128-13.478.128-20.256 0-4.808 0-9.58-.145-14.387h8.242c0 7.482.018 14.956.036 22.43.018 7.473.036 14.947.036 22.43h-8.386c.024-3.413.056-6.813.089-10.21v-.007zM222.636 68.996c-5.206 0-8.64-3.398-10.845-7.844l-2.494 6.94c4.085 3.47 8.133 5.205 13.519 5.205 7.736 0 14.713-5.313 14.713-13.374 0-8.143-5.669-10.984-10.897-13.605-4.473-2.241-8.623-4.321-8.623-9.421 0-3.254 2.205-5.784 5.53-5.784 3.76 0 6.832 2.53 8.567 5.784l2.784-6.037c-3-2.603-7.447-3.868-11.314-3.868-6.652 0-12.977 4.663-12.977 11.712 0 8.19 5.691 11.163 10.934 13.9 4.474 2.337 8.621 4.502 8.621 9.596 0 4.41-3.397 6.796-7.518 6.796zM247.144 27.679h23.713l1.807 4.518c-3.578-.542-7.266-.542-10.916-.542h-6.399v16.23h3.181a84.413 84.413 0 0010.881-.578l-.145 4.844a138.605 138.605 0 00-10.193-.362c-1.266 0-2.531.073-3.796.145v16.628h7.989c4.121 0 8.314 0 12.362-.723l-1.663 4.735-26.821-.036v-44.86zM294.895 68.996c-5.169 0-8.639-3.398-10.844-7.844l-2.531 6.94c4.085 3.47 8.134 5.205 13.52 5.205 7.735 0 14.712-5.313 14.712-13.374 0-8.143-5.669-10.984-10.897-13.605-4.473-2.241-8.623-4.321-8.623-9.421 0-3.254 2.205-5.784 5.53-5.784 3.796 0 6.869 2.53 8.604 5.784l2.783-6.037c-3-2.603-7.446-3.868-11.314-3.868-6.651 0-12.977 4.663-12.977 11.712 0 8.19 5.692 11.163 10.934 13.9 4.475 2.337 8.622 4.502 8.622 9.596 0 4.41-3.398 6.796-7.519 6.796zM320.143 62.325c.064-6.748.128-13.48.128-20.26 0-4.807 0-9.578-.145-14.386h8.242c0 7.482.018 14.956.036 22.43.018 7.473.036 14.947.036 22.43h-8.386c.024-3.414.056-6.814.089-10.211v-.003zM379.553 51.753h-7.519l.036 15.472c-2.06 1.482-5.386 2.132-7.844 2.132-11.169 0-16.555-8.458-16.555-18.905 0-9.724 4.916-19.303 15.76-19.303 6.037 0 11.097 2.639 13.7 8.17l2.53-6.652c-5.422-3.94-10.483-5.783-17.206-5.783-13.483 0-23.713 10.121-23.713 23.568 0 13.483 10.844 22.881 23.966 22.881 4.988 0 12.326-1.445 16.845-3.723V51.753zM418.014 51.97h-19.231c-.048 4.578-.032 9.139-.016 13.705v.018c.008 2.28.016 4.56.016 6.845h-8.169c0-5.314.054-10.654.109-15.995.054-5.341.108-10.682.108-15.996 0-4.265 0-8.567-.145-12.832h8.134v20.243h19.23V37.836c0-3.398 0-6.723-.144-10.121h8.314v44.86h-8.206V51.97zM447.691 31.655v40.847h8.242c0-6.814.018-13.619.036-20.423.018-6.805.036-13.61.036-20.424h15.652l-.072-3.976h-38.064l-1.012 3.976h15.182z"></path></g></svg>